<?xml version="1.0" encoding="utf-8"?>
<!-- Generator: Adobe Illustrator 19.0.0, SVG Export Plug-In . SVG Version: 6.00 Build 0)  -->
<svg version="1.1" id="Layer_1" xmlns="http://www.w3.org/2000/svg" xmlns:xlink="http://www.w3.org/1999/xlink" x="0px" y="0px"
	 viewBox="81 180.6 734 162.3" style="enable-background:new 81 180.6 734 162.3;" xml:space="preserve">
<style type="text/css">
	.st0{display:none;}
	.st1{fill:#595959;}
	.st2{enable-background:new    ;}
</style>
<g id="Layer_1_1_" class="st0">
	
		<image style="display:inline;overflow:visible;enable-background:new    ;" width="400" height="300" xlink:href="47FAB55.png"  transform="matrix(1.9933 0 0 1.9933 -234.6667 -64.1623)">
	</image>
</g>
<g id="Layer_2">
</g>
<path class="st1" d="M235.3,261.8c0,7.5,0,14.9,0,22.4c0,9.2-3.1,17.2-9.3,24c-1.8,2-3.8,3.8-6.2,5.3c-2.7,1.7-5.5,3.2-8.2,4.7
	c-9.8,5.7-19.6,11.4-29.4,17c-3.1,1.8-6.1,3.7-9.5,4.8c-9.9,3.4-19.5,2.8-28.6-2.3c-9.8-5.4-19.5-11.1-29.2-16.7
	c-3.1-1.8-6.2-3.7-9.3-5.4c-3-1.6-5.8-3.4-8.2-5.8c-7.1-6.9-10.8-15.3-10.9-25.2c0-15.3-0.1-30.6,0-45.9c0-9,3.3-16.8,9.3-23.4
	c2.6-2.9,5.7-5.1,9.1-7c8.7-5,17.3-9.9,26-14.9c4-2.3,8-4.6,12-6.9c5.9-3.4,12.2-5.2,19.1-4.9c5.7,0.2,11,1.6,15.9,4.5
	c12.2,7,24.3,14,36.4,21c2.4,1.4,4.8,2.6,7,4.2c7.6,5.7,12.1,13.2,13.6,22.6c0.3,1.8,0.4,3.6,0.4,5.3
	C235.3,246.7,235.3,254.2,235.3,261.8z M131.2,236.8c0,0.5-0.1,0.8-0.1,1.1c0,3.7-0.1,7.5-0.1,11.2c0,10.4,0,20.8-0.1,31.3
	c0,5.4,3.4,10,8.5,11.6c0.6,0.2,0.7,0.4,0.7,1c0,3.4,0,6.7,0,10.1c0,2.3,1.4,4.2,3.6,5c1.1,0.4,2.2,0.4,3.4,0.4
	c3-0.1,5.4-2.5,5.4-5.5c0-3.2,0-6.4,0-9.6c0-0.6,0.1-0.8,0.7-0.8c4.3,0,8.6,0,12.9,0c0.6,0,0.8,0.2,0.8,0.8c0,3.2,0,6.4,0,9.5
	c0,2.8,1.9,5.1,4.7,5.5c0.6,0.1,1.3,0.1,1.9,0.1c3.4,0,5.7-2.4,5.7-5.8c0-3.3,0-6.5,0-9.8c0-0.5,0.2-0.7,0.6-0.8
	c0.7-0.2,1.5-0.4,2.1-0.8c4-2.2,6.3-5.5,6.6-10c0.2-3.7,0-7.4,0-11.2c0-0.4-0.3-0.5-0.6-0.6c-2.3-0.9-4.7-1.7-6.9-2.9
	c-2.9-1.5-5.8-3.1-8.5-4.9c-4.3-2.7-8-6.3-11.6-9.8c-2-1.9-4-3.8-6.2-5.5c-5.5-4.2-11.8-6.8-18.5-8.5
	C134.7,237.5,132.9,237.2,131.2,236.8z M135,222.4c0.3,0.1,0.5,0.1,0.6,0.1c6.2,0.7,12.3,1.9,18.3,3.6c6.3,1.8,12.4,4.1,18,7.7
	c0.7,0.4,1.2,0.5,1.9,0.1c3.9-1.8,8-3,12.3-2.9c2.4,0.1,4.7,0.5,6.7,1.9c1.9,1.4,2.6,3.3,1.7,5.4c-0.6,1.5-1.6,2.7-2.6,3.9
	c-0.3,0.4-0.7,0.8-1.2,1.3c0.2-0.1,0.3-0.1,0.4-0.1c2.2-1,4.2-2.2,5.9-3.8c2-1.9,3.3-4.1,3.6-6.9c0.2-1.6,0.4-3.3,0.6-4.9
	c0.1-0.5,0.1-1.1,0.1-1.6c-0.1-1.4-0.8-2.5-1.7-3.6c-1.8-2.1-4.2-3.5-6.6-4.7c-6.9-3.4-14.3-4.7-22-4.6c-7.7,0.2-15.2,1.3-22.6,3.2
	c-2.2,0.6-4.3,1.3-6.4,2c-1,0.3-1.9,0.6-2.9,1C137.6,220.2,136.3,221.2,135,222.4z M189.3,264.1c0-1.2,0-2.3,0-3.4
	c0-0.2-0.2-0.5-0.4-0.7c-3-2.3-5.5-5.1-7.8-8.1c-3.5-4.5-6.2-9.6-8.4-14.9c-0.1-0.3-0.4-0.6-0.7-0.8c-3.4-2.4-7.2-4.3-11.1-5.9
	c-8.4-3.4-17.2-5.1-26.2-6c-0.9-0.1-1.4,0.2-1.7,1c-0.7,1.3-1.3,2.6-1.7,4c0.2,0.1,0.3,0.1,0.4,0.1c4.1,0.9,8.1,2.2,12,3.9
	c4.5,1.9,8.8,4.1,12.9,6.7c4.7,3,8.6,7,12.5,11c2,2.1,4,4.2,6.5,5.8c3.6,2.3,7.4,4.3,11.2,6.3C187.7,263.4,188.5,263.7,189.3,264.1z
	 M128.7,255.5c0-5.1,0-10.3,0-15.4c0-2.1-0.9-3.6-2.7-4.7c-1.2-0.8-2.5-0.8-3.9-0.8c-3.3,0-5.7,2.4-5.7,5.7c0,3.9,0,7.7,0,11.6
	c0,6.3,0,12.6,0,18.9c0,2.6,1.6,4.7,4.1,5.3c0.8,0.2,1.7,0.2,2.5,0.2c3.3,0,5.6-2.4,5.6-5.6C128.7,265.6,128.7,260.5,128.7,255.5z
	 M177.6,238.6c0,0-0.1,0-0.1,0.1c0.1,0.2,0.1,0.5,0.2,0.7c1,2.6,2.3,5,4.2,7c1,1.1,2,2.2,3.2,3.1c4.3,3.6,9.3,5.6,14.8,6.8
	c0.8,0.2,1.5,0.3,2.3,0.4c0,0,0-0.1,0.1-0.1c-2-1.3-4-2.6-6.1-4c5.9-1.3,11.3-3.6,16-7.3c-0.2,0-0.5,0.1-0.7,0.2
	c-5.2,2.5-10.7,4-16.5,3.6c-5.6-0.4-10.3-2.7-14.2-6.6c-1.1-1.1-1.9-2.3-2.9-3.5C177.7,238.8,177.7,238.7,177.6,238.6z"/>
<path class="st1" d="M184.2,223.3c-1.6-0.4-3.2-0.7-4.9-1.1c-0.4-0.1-0.8-0.3-1.1-0.5c-0.5-0.3-1-0.6-0.9-1.3
	c0.1-0.6,0.7-1.3,1.4-1.3c0.9,0,1.9,0.1,2.8,0.3c1.3,0.3,2.5,0.7,3.7,1.1c0.8,0.3,1,0.7,0.9,1.5c-0.1,0.7-0.4,1-1,1.1
	c-0.3,0-0.6,0.1-0.9,0.1C184.2,223.2,184.2,223.2,184.2,223.3z"/>
<g id="XMLID_15_" class="st2">
	<path class="st1" d="M272.1,275v26.4h-22v-79h32.8c9.5,0,16.8,2.4,21.8,7.2c5,4.8,7.5,11.2,7.5,19.2c0,5-1.1,9.4-3.3,13.4
		c-2.2,3.9-5.6,7-10,9.3c-4.4,2.3-9.8,3.4-16,3.4H272.1z M290.1,248.9c0-5.8-3.2-8.7-9.6-8.7h-8.4v17.5h8.4
		C286.9,257.7,290.1,254.8,290.1,248.9z"/>
	<path class="st1" d="M403.2,222.5l-27.9,53.9v25.1h-21.9v-25.1l-27.9-53.9h25.1l13.9,30.1l13.8-30.1H403.2z"/>
	<path class="st1" d="M487.4,282.2c-3.3,6-8.1,10.7-14.3,14.1c-6.2,3.4-13.4,5.1-21.8,5.1h-31.5v-79h31.5c8.3,0,15.6,1.7,21.8,5
		c6.2,3.3,11,7.9,14.3,13.9c3.3,6,5,12.8,5,20.4C492.4,269.4,490.7,276.2,487.4,282.2z M464.6,276.6c3.7-3.5,5.6-8.4,5.6-14.8
		c0-6.3-1.9-11.2-5.6-14.8c-3.7-3.5-8.8-5.3-15.3-5.3h-7.5v40.2h7.5C455.8,281.8,460.9,280.1,464.6,276.6z"/>
	<path class="st1" d="M552.6,301.5l-16-29.1h-2.2v29.1h-22v-79h34.7c6.3,0,11.7,1.1,16.1,3.3c4.4,2.2,7.8,5.2,10,9.1
		c2.2,3.9,3.3,8.2,3.3,13.1c0,5.5-1.5,10.3-4.6,14.3c-3,4.1-7.4,6.9-13.2,8.5l18,30.7H552.6z M534.5,257.6h10.8
		c6.1,0,9.1-2.8,9.1-8.3c0-2.6-0.8-4.6-2.3-6.1c-1.5-1.5-3.8-2.2-6.9-2.2h-10.8V257.6z"/>
	<path class="st1" d="M654,226.5c6.1,3.5,11,8.3,14.5,14.4c3.5,6.2,5.3,13.1,5.3,20.9c0,7.7-1.8,14.7-5.4,20.9
		c-3.6,6.2-8.4,11-14.6,14.4c-6.1,3.5-12.9,5.2-20.2,5.2c-7.4,0-14.1-1.7-20.3-5.2c-6.2-3.5-11-8.3-14.6-14.4
		c-3.6-6.2-5.4-13.1-5.4-20.9c0-7.7,1.8-14.7,5.4-20.9c3.6-6.2,8.4-11,14.6-14.4c6.2-3.5,12.9-5.2,20.3-5.2
		C641.1,221.3,647.8,223,654,226.5z M620.5,247c-3.2,3.6-4.8,8.5-4.8,14.8c0,6.1,1.6,11,4.8,14.6c3.2,3.6,7.6,5.5,13.2,5.5
		c5.5,0,9.9-1.8,13-5.5c3.2-3.6,4.8-8.5,4.8-14.6c0-6.2-1.6-11.2-4.7-14.8c-3.2-3.6-7.5-5.4-13.1-5.4
		C628,241.6,623.7,243.4,620.5,247z"/>
	<path class="st1" d="M715.8,222.5v79h-22v-79H715.8z"/>
	<path class="st1" d="M805.7,282.2c-3.3,6-8.1,10.7-14.3,14.1c-6.2,3.4-13.4,5.1-21.8,5.1h-31.5v-79h31.5c8.3,0,15.6,1.7,21.8,5
		c6.2,3.3,11,7.9,14.3,13.9c3.3,6,5,12.8,5,20.4C810.7,269.4,809.1,276.2,805.7,282.2z M783,276.6c3.7-3.5,5.6-8.4,5.6-14.8
		c0-6.3-1.9-11.2-5.6-14.8c-3.7-3.5-8.8-5.3-15.3-5.3h-7.5v40.2h7.5C774.2,281.8,779.2,280.1,783,276.6z"/>
</g>
</svg>
